<?xml version="1.0" standalone="no"?><!DOCTYPE svg PUBLIC "-//W3C//DTD SVG 1.1//EN" "http://www.w3.org/Graphics/SVG/1.1/DTD/svg11.dtd"><svg t="1563285392275" class="icon" viewBox="0 0 1024 1024" version="1.1" xmlns="http://www.w3.org/2000/svg" p-id="2289" xmlns:xlink="http://www.w3.org/1999/xlink" width="200" height="200"><defs><style type="text/css"></style></defs><path d="M160.165288 567.337374V414.771717a124.379798 124.379798 0 0 0 3.10303-236.864646V36.20202a36.20202 36.20202 0 1 0-72.40404 0v140.153536a124.121212 124.121212 0 0 0-2.585859 238.416161v152.565657a124.121212 124.121212 0 0 0-5.171717 235.830303V987.79798a36.20202 36.20202 0 1 0 72.404041 0v-182.044445a123.707475 123.707475 0 0 0 4.654545-238.416161z m-87.919192-271.515152A52.234343 52.234343 0 1 1 124.48044 348.056566a52.441212 52.441212 0 0 1-52.234344-52.234344zM124.48044 738.00404a52.234343 52.234343 0 1 1 52.234343-52.234343A52.441212 52.441212 0 0 1 124.48044 738.00404zM334.452157 139.636364v71.886868H988.157207a36.20202 36.20202 0 1 0 0-72.40404H334.452157z m471.660606 218.763636H333.934985v71.886869h472.177778a36.20202 36.20202 0 0 0 36.20202-36.202021 35.529697 35.529697 0 0 0-36.20202-35.684848z m-471.660606 302.028283H988.157207a36.20202 36.20202 0 1 0 0-72.404041H333.934985v72.404041z m0 223.935353h472.177778a36.20202 36.20202 0 0 0 0-72.40404H334.452157v72.40404z" fill="#04be02" p-id="2290"></path></svg>