<?xml version="1.0" standalone="no"?><!DOCTYPE svg PUBLIC "-//W3C//DTD SVG 1.1//EN" "http://www.w3.org/Graphics/SVG/1.1/DTD/svg11.dtd"><svg t="1560865250308" class="icon" style="" viewBox="0 0 1024 1024" version="1.1" xmlns="http://www.w3.org/2000/svg" p-id="3954" xmlns:xlink="http://www.w3.org/1999/xlink" width="200" height="200"><defs><style type="text/css"></style></defs><path d="M874.579387 709.60759 305.421596 709.60759l40.923038-117.652584-0.185218-0.150426c4.490268-6.037507 5.490038-13.377682 3.861958-20.147876-0.069585-0.208754 0.022513-0.406253-0.047072-0.627287l-134.308939-417.179424-0.093121 0.023536c-2.489704-10.55131-11.562337-17.588587-21.846564-18.449187-0.558725-0.151449-0.977257-0.511653-1.535983-0.582261l0-0.12689-85.986373-15.763009-0.023536 0.222057c-13.400195-2.094708-25.917276 7.059789-28.057009 20.438495-2.140757 13.343913 7.02602 25.859971 20.426215 27.964912l73.634044 13.505595L299.535539 574.087057l-58.372455 145.616472 0.093121 0.068562c-0.48914 0.675382-0.581238 1.466398-1.023306 2.187829-0.931209 1.558495-1.722224 3.093455-2.28095 4.863774-0.511653 1.581008-0.76748 3.116991-0.953721 4.699022-0.115634 0.930185-0.557702 1.768273-0.557702 2.698458 0 0.62831 0.301875 1.163499 0.348947 1.769296 0.13917 1.76725 0.534166 3.442402 1.045819 5.118578 0.418532 1.348718 0.76748 2.674922 1.39579 3.955078 0.744967 1.534959 1.790786 2.860141 2.885723 4.233418 0.883113 1.140986 1.744737 2.186805 2.814092 3.140527 0.581238 0.48914 0.884137 1.139963 1.465374 1.605567 0.930185 0.697895 2.046612 0.883113 3.048429 1.394766 1.139963 0.651846 2.25639 1.257643 3.51301 1.676176 2.000564 0.697895 4.001127 1.070378 6.118348 1.25662 0.650823 0.047072 1.234107 0.372483 1.930979 0.372483l0 0.115634 613.571327 0 0-0.233314c13.563924 0 24.567535-10.981099 24.567535-24.496927C899.146922 720.587666 888.143311 709.60759 874.579387 709.60759zM934.742628 275.572266c0.325411-1.499144 0.931209-2.89698 0.931209-4.466732 0-1.348718-0.559748-2.524496-0.76748-3.803629-0.070608-0.48914-0.187265-0.918929-0.303922-1.39579-0.581238-2.675946-1.535983-5.106298-2.907213-7.363711-0.278339-0.430812-0.559748-0.837064-0.861624-1.267876-1.441838-2.058892-3.093455-3.815909-5.117554-5.327332-0.629333-0.511653-1.327228-0.942465-2.025123-1.396813-1.860371-1.116427-3.791349-1.977028-5.954619-2.594081-0.627287-0.196475-1.069355-0.604774-1.721201-0.756223-0.768503-0.162706-1.466398 0.047072-2.212388-0.046049-0.929162-0.115634-1.74269-0.546446-2.697435-0.546446l-561.457412 0 0 0.105401c-13.5629 0-24.567535 10.992355-24.567535 24.520463 0 13.516852 11.004635 24.486694 24.567535 24.486694l0 0.127913 509.320984 0 17.377786-0.082888L784.193821 560.511877 440.196139 560.511877l0 0.104377c-13.563924 0-24.568559 10.992355-24.568559 24.51023 0 13.528108 11.004635 24.49795 24.568559 24.49795l0 0.127913L793.127284 609.752348l0-0.233314c0.977257 0 1.791809-0.429789 2.700505-0.558725 0.162706 0.058328 0.277316 0.174985 0.441045 0.197498 13.238512 2.90926 26.359344-5.421476 29.291117-18.647709l0.116657 0.022513 107.600647-309.227784c0.324388-0.710175 0.51063-1.442862 0.768503-2.187829l0.929162-2.687202-0.233314-0.046049C934.813237 276.107455 934.695556 275.852652 934.742628 275.572266zM394.503471 816.927851c-24.545022 0-44.436048 19.847024-44.436048 44.321438s19.891026 44.296879 44.436048 44.296879c24.568559 0 44.436048-19.822464 44.436048-44.296879S419.072029 816.927851 394.503471 816.927851zM733.31299 816.927851c-24.521486 0-44.437072 19.847024-44.437072 44.321438s19.915585 44.296879 44.437072 44.296879c24.569582 0 44.458561-19.822464 44.458561-44.296879S757.882572 816.927851 733.31299 816.927851z" p-id="3955"></path></svg>