<?xml version="1.0" standalone="no"?><!DOCTYPE svg PUBLIC "-//W3C//DTD SVG 1.1//EN" "http://www.w3.org/Graphics/SVG/1.1/DTD/svg11.dtd"><svg t="1560867354816" class="icon" style="" viewBox="0 0 1024 1024" version="1.1" xmlns="http://www.w3.org/2000/svg" p-id="12127" xmlns:xlink="http://www.w3.org/1999/xlink" width="200" height="200"><defs><style type="text/css"></style></defs><path d="M722.496 642.848c45.504-62.592 73.92-136.544 73.92-216.192 0-204.8-164.96-369.76-369.76-369.76-204.8 0-369.76 164.96-369.76 369.76 0 204.8 164.96 369.792 369.76 369.792 79.68 0 153.6-28.448 216.192-68.256l221.856 221.856c22.752 22.752 56.896 22.752 79.68 0 22.72-22.752 22.72-56.896 0-79.648l-221.888-227.552z m-295.84 96.704c-170.656 0-312.864-142.208-312.864-312.896C113.792 256 256 113.792 426.656 113.792c170.688 0 312.896 142.208 312.896 312.864 0 170.688-142.208 312.896-312.896 312.896z" fill="#FFFFFF" p-id="12128"></path></svg>