<?xml version="1.0" standalone="no"?><!DOCTYPE svg PUBLIC "-//W3C//DTD SVG 1.1//EN" "http://www.w3.org/Graphics/SVG/1.1/DTD/svg11.dtd"><svg t="1560864573219" class="icon" style="" viewBox="0 0 1024 1024" version="1.1" xmlns="http://www.w3.org/2000/svg" p-id="2059" xmlns:xlink="http://www.w3.org/1999/xlink" width="200" height="200"><defs><style type="text/css"></style></defs><path d="M933.547407 422.223301 558.918078 87.021959c-31.839149-31.943526-83.444481-31.943526-115.28056 0L89.263511 422.223301c-31.815613 31.943526-35.228339 77.088726-3.38919 109.032252l81.117482 0 0 305.211307c0 67.427692 54.462402 122.092709 121.67827 122.092709l141.937686 0L430.60776 714.381313c0-22.476921 18.167778-40.697911 40.557718-40.697911l81.119529 0c22.390963 0 40.559764 18.222013 40.559764 40.697911l0 122.085546 40.557718 0L633.402489 714.381313c0-44.952818-36.314067-81.384565-81.117482-81.384565l-81.119529 0c-44.780903 0-81.117482 36.432771-81.117482 81.384565l0 203.480344-101.377922 0c-44.801369 0-81.118506-36.44505-81.118506-81.394798L207.551568 490.557642l-81.117482 0c-21.153786-1.940189-24.267706-23.433712-8.337899-39.417755L472.446657 115.938546c15.926738-15.98302 41.73145-15.98302 57.638745 0l374.652865 335.200318c15.908318 15.984043 15.202237 39.226397-7.722892 39.417755l-81.116459 0 0 345.909218c0 44.949748-36.295648 81.394798-81.097016 81.394798L592.844771 917.860634l0 40.697911 141.959176 0c67.192332 0 121.654734-54.665017 121.654734-122.092709l0-305.211307 81.120552 0C969.416336 499.312026 965.385533 454.166827 933.547407 422.223301z" p-id="2060"></path></svg>