<?xml version="1.0" standalone="no"?><!DOCTYPE svg PUBLIC "-//W3C//DTD SVG 1.1//EN" "http://www.w3.org/Graphics/SVG/1.1/DTD/svg11.dtd"><svg t="1560865353860" class="icon" style="" viewBox="0 0 1024 1024" version="1.1" xmlns="http://www.w3.org/2000/svg" p-id="4678" xmlns:xlink="http://www.w3.org/1999/xlink" width="200" height="200"><defs><style type="text/css"></style></defs><path d="M724.586667 106.666667H768a85.333333 85.333333 0 0 1 85.333333 85.333333v704a85.333333 85.333333 0 0 1-85.333333 85.333333H256a85.333333 85.333333 0 0 1-85.333333-85.333333V192a85.333333 85.333333 0 0 1 85.333333-85.333333h43.413333A74.666667 74.666667 0 0 1 373.333333 42.666667h277.333334a74.666667 74.666667 0 0 1 73.92 64zM305.856 149.333333H256a42.666667 42.666667 0 0 0-42.666667 42.666667v704a42.666667 42.666667 0 0 0 42.666667 42.666667h512a42.666667 42.666667 0 0 0 42.666667-42.666667V192a42.666667 42.666667 0 0 0-42.666667-42.666667h-49.856A74.666667 74.666667 0 0 1 650.666667 192h-277.333334a74.666667 74.666667 0 0 1-67.477333-42.666667zM320 362.666667a21.333333 21.333333 0 0 1 0-42.666667h384a21.333333 21.333333 0 0 1 0 42.666667H320z m0 149.333333a21.333333 21.333333 0 0 1 0-42.666667h384a21.333333 21.333333 0 0 1 0 42.666667H320z m0 149.333333a21.333333 21.333333 0 0 1 0-42.666666h170.666667a21.333333 21.333333 0 0 1 0 42.666666h-170.666667z m53.333333-576a32 32 0 0 0 0 64h277.333334a32 32 0 0 0 0-64h-277.333334z" p-id="4679"></path></svg>