<?xml version="1.0" standalone="no"?><!DOCTYPE svg PUBLIC "-//W3C//DTD SVG 1.1//EN" "http://www.w3.org/Graphics/SVG/1.1/DTD/svg11.dtd"><svg t="1560865572890" class="icon" style="" viewBox="0 0 1024 1024" version="1.1" xmlns="http://www.w3.org/2000/svg" p-id="6170" xmlns:xlink="http://www.w3.org/1999/xlink" width="200" height="200"><defs><style type="text/css"></style></defs><path d="M168.161443 407.472342c-57.732889 0-104.537891 46.783513-104.537891 104.537891 0 57.733912 46.805002 104.518448 104.537891 104.518448 57.733912 0 104.538915-46.784536 104.538915-104.518448C272.700357 454.258924 225.895355 407.472342 168.161443 407.472342z" p-id="6171"></path><path d="M855.837534 407.472342c-57.733912 0-104.543008 46.783513-104.543008 104.537891 0 57.733912 46.809095 104.518448 104.543008 104.518448 57.732889 0 104.537891-46.784536 104.537891-104.518448C960.375425 454.258924 913.570423 407.472342 855.837534 407.472342z" p-id="6172"></path><path d="M501.580185 407.472342c-57.733912 0-104.541985 46.783513-104.541985 104.537891 0 57.733912 46.808072 104.518448 104.541985 104.518448s104.538915-46.784536 104.538915-104.518448C606.119099 454.258924 559.314097 407.472342 501.580185 407.472342z" p-id="6173"></path></svg>